<?xml version="1.0" encoding="utf-8"?>
<svg viewBox="0 0 200 200" xmlns:xlink="http://www.w3.org/1999/xlink" xmlns="http://www.w3.org/2000/svg">
  <defs>
    <style type="text/css">@import url('https://fonts.googleapis.com/css?family=Righteous')</style>
  </defs>
  <path stroke="#4488ff" class="foreground-stroke" transform="translate(18 52) scale(1.6,1) skewX(-10) skewY(-15)" opacity=".5" stroke-width="0.5" d="M 65 65 L 65 65 L 65.0519541427416 65.0021833579606 L 65.1036333036935 65.0087257300879 L 65.1547633094412 65.0196040314938 L 65.2050716013243 65.0347798552364 L 65.2542880378283 65.05419957396 L 65.3021456910049 65.0777944818555 L 65.3483816349547 65.1054809766086 L 65.392737724418 65.1371607809069 L 65.4349613615479 65.1727212029844 L 65.4748062489624 65.212035435591 L 65.5120331272051 65.2549628926816 L 65.54641049478 65.3013495830332 L 65.5777153089639 65.351028519908 L 65.605733665645 65.4038201657969 L 65.6302614564835 65.459532911195 L 65.6511050017405 65.5179635862766 L 65.6680816571796 65.5788980042634 L 65.681020393501 65.6421115351991 L 65.6897623468336 65.7073697087737 L 65.694161338875 65.7744288447697 L 65.6940843653379 65.8430367096358 L 65.6894120514366 65.9129331976295 L 65.6800390732184 65.9838510349114 L 65.6658745436263 66.0555165049162 L 65.6468423622592 66.1276501932722 L 65.622881527877 66.1999677504957 L 65.5939464127863 66.2721806706354 L 65.5600069983283 66.3439970840085 L 65.5210490707798 66.4151225621265 L 65.4770743770701 66.4852609328812 L 65.4281007398081 66.5541151040305 L 65.3741621312091 66.6213878930006 L 65.3153087056048 66.6867828610019 L 65.251606790316 66.7500051494401 L 65.1831388347642 66.8107623165952 L 65.1100033177959 66.8687651725334 L 65.0323146132886 66.9237286102172 L 64.9502028142082 66.9753724307804 L 64.8638135153807 67.0234221609459 L 64.7733075553411 67.067609860572 L 64.6788607177167 67.1076749183341 L 64.5806633926978 67.1433648335681 L 64.4789201992436 67.1744359823282 L 64.3738495687624 67.2006543657424 L 64.2656832911002 67.2217963387832 L 64.1546660237581 67.2376493176124 L 64.0410547653489 67.2480124636976 L 63.9251182943896 67.2526973429522 L 63.8071365746104 67.251528558195 L 63.6874001280404 67.2443443532871 L 63.5662093772121 67.2309971873594 L 63.4438739579006 67.2113542776091 L 63.3207120038864 67.1852981092082 L 63.197049405304 67.15272691094 L 63.0732190421996 67.1135550952501 L 62.9495599949908 67.0677136614768 L 62.8264167335757 67.0151505611046 L 62.7041382868979 66.955831023967 L 62.5830773948254 66.8897378444101 L 62.4635896442483 66.8168716265151 L 62.3460325913473 66.737250987569 L 62.2307648720205 66.6509127190631 L 62.1181453024966 66.5579119045945 L 62.0085319721898 66.4583219941389 L 61.9022813308812 66.3522348342624 L 61.7997472723314 66.2397606539369 L 61.70128021645 66.1210280057234 L 61.6072261921564 65.9961836621879 L 61.5179259230786 65.8653924675152 L 61.4337139182391 65.7288371443872 L 61.3549175698735 65.5867180562954 L 61.2818562605259 65.4392529255557 L 61.2148404815509 65.2866765073984 L 61.1541709651393 65.1292402206058 L 61.1001378319618 64.9672117352681 L 61.0530197565036 64.8008745183328 L 61.0130831521307 64.6305273377151 L 60.9805813778954 64.4564837258382 L 60.9557539690513 64.2790714035666 L 60.9388258932028 64.0986316655885 L 60.9300068339689 63.9155187283958 L 60.9294905039877 63.7300990421006 L 60.9374539890326 63.5427505674138 L 60.9540571249518 63.3538620191956 L 60.9794419090779 63.1638320780711 L 61.0137319476858 62.973068571683 L 61.0570319410078 62.7819876272286 L 61.1094272072362 62.5910127970024 L 61.1709832468686 62.4005741587344 L 61.2417453486657 62.2111073925797 L 61.3217382384084 62.0230528366776 L 61.4109657715533 61.8368545232573 L 61.5094106707915 61.6529591973183 L 61.6170343094273 61.4718153199686 L 61.7337765413921 61.2938720585442 L 61.8595555786153 61.1195782656787 L 61.9942679163704 60.9493814495266 L 62.1377883071151 60.7837267373766 L 62.2899697832389 60.6230558349184 L 62.4506437290284 60.4678059834493 L 62.6196200020522 60.3184089173263 L 62.7966871040639 60.1752898239789 L 62.9816124014097 60.0388663088103 L 63.1741423948224 59.9095473673145 L 63.374003038373 59.7877323667352 L 63.580900107244 59.6738100395893 L 63.7945196138794 59.5681574913591 L 64.0145282719584 59.4711392246476 L 64.2405740075327 59.3831061820642 L 64.4722865165628 59.304394810084 L 64.7092778679789 59.23532614609 L 64.9511431512943 59.1762049307746 L 65.197461167691 59.1273187480288 L 65.4477951634007 59.0889371944095 L 65.7016936041042 59.0613110802165 L 65.9586909889762 59.0446716641603 L 66.218308702908 59.0392299235402 L 66.4800559053509 59.0451758617877 L 66.7434304541329 59.0626778551605 L 67.0079198625183 59.0918820403021 L 67.2730022876935 59.1329117443028 L 67.5381475487902 59.1858669588175 L 67.8028181724741 59.2508238597127 L 68.0664704640641 59.3278343736257 L 68.328555602072 59.4169257927272 L 68.5885207539959 59.5181004388861 L 68.8458102111371 59.6313353783353 L 69.0998665401571 59.7565821878378 L 69.3501317490425 59.8937667732493 L 69.5960484650975 60.0427892412694 L 69.8370611225457 60.203523825061 L 70.0726171572845 60.3758188643152 L 70.3021682063074 60.5594968402193 L 70.5251713092811 60.7543544656794 L 70.7410901097444 60.9601628310296 L 70.9493960533822 61.1766676053473 L 71.1495695808145 61.4035892933759 L 71.3411013123388 61.6406235479401 L 71.5234932220609 61.8874415376212 L 71.6962597988587 62.1436903693422 L 71.8589291916329 62.4089935653946 L 72.011044336313 62.6829515943224 L 72.1521640621145 62.9651424549621 L 72.2818641745628 63.25512231282 L 72.3997385128392 63.5524261878561 L 72.5053999790367 63.8565686926292 L 72.5984815369597 64.1670448196437 L 72.6786371781474 64.4833307766346 L 72.7455428528557 64.8048848684106 L 72.7988973637906 65.1311484237779 L 72.8384232204464 65.4615467659581 L 72.8638674519745 65.7954902248148 L 72.875002376577 66.1323751891075 L 72.8716263254986 66.471585196894 L 72.8535643197709 66.8124920621126 L 72.8206686979499 67.154457035289 L 72.7728196931757 67.4968319962263 L 72.7099259579791 67.8389606764588 L 72.6319250353558 68.1801799091733 L 72.538783774731 68.5198209042297 L 72.4304986915413 68.8572105458483 L 72.3070962692684 69.1916727104634 L 72.1686332028706 69.5225296021918 L 72.0151965826699 69.8491031033064 L 71.8469040178713 70.1707161370605 L 71.6639036990058 70.4866940401646 L 71.4663743987127 70.7963659421807 L 71.2545254103967 71.0990661490676 L 71.0285964244189 71.3941355280823 L 70.7888573416102 71.6809228912244 L 70.5356080240165 71.9587863743935 L 70.2691779829167 72.2270948094201 L 69.9899260042809 72.485229086127 L 69.6982397119656 72.7325835015802 L 69.394535069069 72.9685670936952 L 69.0792558180018 73.1926049563798 L 68.7528728599521 73.4041395334106 L 68.4158835745556 73.6026318882701 L 68.0688110807039 73.787562947197 L 67.7122034395523 73.9584347127431 L 67.3466328009109 74.1147714451701 L 66.9726944943252 74.2561208090679 L 66.5910060662725 74.3820549826296 L 66.2022062650184 74.4921717270786 L 65.8069539747934 74.5860954138046 L 65.4059271010621 74.6634780068371 L 64.9998214087679 74.72399999836 L 64.5893493155418 74.7673712950493 L 64.1752386419685 74.7933320531011 L 63.7582313211017 74.801653459907 L 63.3390820695168 74.7921384604283 L 62.9185570222809 74.7646224264179 L 62.4974323343067 74.7189737667424 L 62.0764927506428 74.6550944771636 L 61.6565301483261 74.5729206280501 L 61.2383420525018 74.4724227886018 L 60.8227301295797 74.3536063862918 L 60.4104986602627 74.2165120003475 L 60.0024529953396 74.0612155882205 L 59.5993979971865 73.8878286441181 L 59.2021364699711 73.6964982888034 L 58.8114675815918 73.487407289998 L 58.4281852804211 73.260774012859 L 58.0530767099534 73.0168523001368 L 57.6869206244782 72.7559312817557 L 57.3304858089193 72.4783351137009 L 56.9845295059922 72.1844226462319 L 56.6497958538349 71.8745870215866 L 56.3270143372691 71.5492552014764 L 56.0168982558391 71.2088874248172 L 55.7201432117634 70.8539765962821 L 55.4374256209145 70.4850476063984 L 55.1694012499143 70.1026565840563 L 54.9167037824022 69.7073900824318 L 54.6799434174929 69.2998641994662 L 54.459705503397 68.8807236341796 L 54.2565492091259 68.4506406802312 L 54.0710062371453 68.0103141582704 L 53.9035795797795 67.5604682887537 L 53.7547423220989 67.1018515070305 L 53.624936493949 66.6352352226231 L 53.5145719736985 66.1614125247504 L 53.4240254461982 65.6811968362619 L 53.3536394173526 65.1954205182623 L 53.3037212876068 64.7049334278192 L 53.2745424865527 64.2106014312517 L 53.2663376707505 63.7133048756018 L 53.279303986751 63.2139370209845 L 53.3136004011885 62.7134024366107 L 53.3693470996928 62.2126153633601 L 53.4466249562489 61.712498045867 L 53.5454750744988 61.2139790371589 L 53.6658984023557 60.7179914789579 L 53.8078554211581 60.2254713608252 L 53.9712659104613 59.7373557613831 L 54.1560087894159 59.2545810749106 L 54.3619220355441 58.7780812266507 L 54.5888026815761 58.3087858802126 L 54.8364068908626 57.847618640488 L 55.1044501117278 57.3954952555268 L 55.3926073109776 56.9533218208432 L 55.7005132866243 56.5219929896379 L 56.0277630597359 56.1023901924303 L 56.3739123451637 55.6953798695981 L 56.7384781007469 55.301811720318 L 57.120939154441 54.9225169713872 L 57.5207369086574 54.5583066693912 L 57.9372761209537 54.2099699996548 L 58.3699257600569 53.8782726353842 L 58.8180199360521 53.5639551203683 L 59.2808589034184 53.2677312885618 L 59.7577101354453 52.9902867238228 L 60.2478094684161 52.7322772630156 L 60.7503623138015 52.4943275456279 L 61.264544936564 52.2770296129775 L 61.7895057975359 52.0809415600074 L 62.3243669576982 51.906586242582 L 62.8682255420557 51.7544500431105 L 63.420155260676 51.6249816972226 L 63.9792079843344 51.518591184125 L 64.5444153720901 51.4356486831544 L 65.1147905479992 51.3764835989349 L 65.689329824066 51.3413836574251 L 66.26701446642 51.3305940750198 L 66.8468125016156 51.3443168027419 L 67.4276805598481 51.382709847428 L 68.008565751797 51.4458866716736 L 68.5884075757194 51.5339156741642 L 69.1661398513438 51.6468197518701 L 69.7406926770399 51.7845759454394 L 70.3109944066782 51.9471151689662 L 70.8759736425335 52.1343220251612 L 71.4345612405363 52.346034706789 L 71.9856923241322 52.5820449850807 L 72.5283083029701 52.842098285665 L 73.0613588926117 53.1258938523984 L 73.5838041314308 53.4330849993081 L 74.0946163908546 53.7632794506939 L 74.592782375092 54.1160397692695 L 75.0773051064899 54.4908838720513 L 75.5472058926682 54.8872856335371 L 76.0015262715948 55.3046755755462 L 76.4393299307838 55.7424416429236 L 76.8597045968293 56.1999300641446 L 77.2617638915214 56.676446295687 L 77.6446491508351 57.1712560488743 L 78.0075312031331 57.6835863977274 L 78.3496121029814 58.2126269662018 L 78.6701268170401 58.7575311930262 L 78.9683448585651 59.3174176722025 L 79.243571867136 59.8913715670709 L 79.4951511303078 60.4784460956949 L 79.7224650439813 61.0776640851721 L 79.9249365083818 61.6880195923328 L 80.1020302566441 62.3084795881498 L 80.2532541131118 62.9379857030467 L 80.3781601785778 63.5754560301615 L 80.4763459398167 64.219786983497 L 80.5474553008862 64.8698552077692 L 80.5911795338157 65.5245195366498 L 80.6072581464317 66.1826229959885 L 80.5954796652235 66.8429948485011 L 80.5556823312942 67.5044526763069 L 80.4877547076033 68.1658044976137 L 80.391636195859 68.8258509137607 L 80.2673174615856 69.4833872827543 L 80.1148407660547 70.1372059153602 L 79.9343002039373 70.7860982897525 L 79.7258418457087 71.4288572806661 L 79.4896637840094 72.0642793989456 L 79.2260160833455 72.6911670373484 L 78.9352006326893 73.3083307184233 L 78.6175709007215 73.9145913402591 L 78.2735315936407 74.5087824158838 L 77.903538215646 75.0897523020817 L 77.5080965323858 75.6563664133943 L 77.0877619378471 76.2075094170799 L 76.6431387253463 76.7420874048161 L 76.1748792634645 77.259030036956 L 75.6836830779555 77.757292655176 L 75.1702958408337 78.2358583593933 L 74.6355082680347 78.6937400448758 L 74.0801549272144 79.1299823955228 L 73.5051129574342 79.5436638293548 L 72.9113007026527 79.9338983923223 L 72.2996762611132 80.2998375966198 L 71.6712359528911 80.6406721997762 L 71.0270127080225 80.9556339208862 L 70.3680743778032 81.2439970904446 L 69.6955219720009 81.505080230355 L 69.0104878248765 81.7382475607967 L 68.3141336930596 81.9429104307532 L 67.607648788465 82.1185286691356 L 66.8922477495751 82.2646118535642 L 66.1691685545452 82.3807204940147 L 65.439670379715 82.4664671286783 L 64.7050314072281 82.5215173295374 L 63.9665465855784 82.5455906153147 L 63.2255253470038 82.5384612696175 L 62.4832892857531 82.4999590622605 L 61.7411698013423 82.429969871928 L 61.0005057110013 82.3284362085061 L 60.2626408355925 82.1953576335999 L 59.5289215633514 82.0307910779282 L 58.8006943958638 81.83485105448 L 58.0793034807464 81.6077097665028 L 57.3660881355465 81.3495971095852 L 56.6623803674139 81.0608005672916 L 55.9695023931267 80.741665000001 L 55.288764164078 80.3925923268014 L 54.6214609008379 80.0140411004887 L 53.968870641915 79.6065259759189 L 53.3322518113338 79.1706170721629 L 52.7128408096328 78.7069392291122 L 52.1118496328669 78.2161711593853 L 51.5304635241655 77.6990444965818 L 50.9698386623616 77.1563427411305 L 50.4310998921578 76.5889001051746 L 49.9153385002385 75.9976002581296 L 49.4236100416749 75.3833749747464 L 48.9569322208955 74.7472026876975 L 48.5162828314114 74.0901069468943 L 48.1025977584014 73.4131547879269 L 47.7167690481577 72.7174550121967 L 47.3596430482933 72.0041563814905 L 47.0320186224952 71.2744457299143 L 46.7346454434881 70.5295459962742 L 46.4682223677465 69.7707141801524 L 46.2333958953534 68.9992392250854 L 46.0307587182681 68.2164398323984 L 45.8608483601096 67.4236622094018 L 45.7241459104122 66.6222777557868 L 45.6210748561447 65.8136806921969 L 45.55200001312 64.9992856350717 L 45.5172265597452 64.1805251219826 L 45.5169991753871 63.3588470917882 L 45.5515012854432 62.5357123240415 L 45.6208544150191 61.7125918421777 L 45.7251176529228 60.8909642850991 L 45.864287227487 60.0723132518511 L 46.038296195534 59.2581246241581 L 46.2470142455902 58.4498838716475 L 46.4902476162536 57.649073344646 L 46.7677391304072 56.8571695594766 L 47.0791683457609 56.0756404812209 L 47.4241518219902 55.3059428089396 L 47.8022435045267 54.5495192683587 L 48.212935224839 53.8077959170434 L 48.6556573168275 53.0821794670743 L 49.1297793487385 52.3740546302357 L 49.6346109697892 51.6847814907048 L 50.1694028704774 51.0156929102013 L 50.7333478553355 50.3680919705208 L 51.3255820266776 49.7432494583257 L 51.9451860776726 49.1424013970145 L 52.5911866928711 48.5667466304197 L 53.2625580541048 48.0174444630162 L 53.9582234494745 47.4956123612317 L 54.6770569829419 47.002323720364 L 55.4178853818437 46.5386057015047 L 56.1794898994558 46.1054371427599 L 56.9606083095441 45.703746548943 L 57.7599369896593 45.3344101637836 L 58.5761330897521 44.9982501285657 L 59.4078167825153 44.6960327309641 L 60.2535735916913 44.4284667476994 L 61.1119567944249 44.1962018844736 L 61.9814898935865 43.9998273164843 L 62.8606691558462 43.8398703326456 L 63.7479662111379 43.7167950864644 L 64.6418307090218 43.6310014563387 L 65.5406930273296 43.5828240178543 L 66.4429670283605 43.572531130461 L 67.347052857789 43.6003241407085 L 68.2513397813432 43.6663367040197 L 69.154209054228 43.7706342267657 L 70.0540368181771 43.913213430195 L 70.9491970209551 44.0940020375525 L 71.8380643530585 44.3128585855022 L 72.7190171963175 44.5695723607421 L 73.5904405790522 44.8638634624769 L 74.450729132403 45.1953829911823 L 75.2982900424325 45.5637133638667 L 76.1315459925772 45.9683687558019 L 76.9489380910259 46.4087956684665 L 77.7489287776044 46.8843736232067 L 78.5300047047626 47.3944159798914 L 79.2906795872835 47.9381708796039 L 80.0294970153708 48.5148223101793 L 80.7450332258137 49.1234912931708 L 81.4358998259859 49.7632371905921 L 82.1007464654985 50.4330591295654 L 82.7382634504004 51.1318975427714 L 83.3471842949073 51.8586358223848 L 83.9262882057306 52.6121020849531 L 84.4744024941838 53.3910710444707 L 84.9904049113543 54.1942659906833 L 85.4732259017516 55.0203608694578 L 85.9218507709742 55.8679824618497 L 86.3353217630747 56.7357126583067 L 86.7127400434518 57.6220908242589 L 87.0532675832554 58.5256162531608 L 87.3561289414518 59.4447507028774 L 87.6206129408707 60.3779210111344 L 87.8460742347343 61.3235217855933 L 88.0319347603542 62.2799181639536 L 88.1776850768754 63.2454486393423 L 88.2828855841491 64.2184279461088 L 88.3471676200155 65.1971500010135 L 88.3702344334979 66.1798908946795 L 88.3518620316185 67.1649119280598 L 88.2918998977734 68.1504626885752 L 88.1902715798302 69.1347841604756 L 88.0469751463402 70.1161118639038 L 87.8620835094951 71.0926790170558 L 87.6357446136945 72.0627197157754 L 87.368181488832 73.0244721248611 L 87.0596921676528 73.9761816753227 L 86.7106494667782 74.9161042617898 L 86.3215006312454 75.84250943425 L 85.8927668426544 76.7536835782865 L 85.425042591266 77.6479330779764 L 84.918994912646 78.5235874556266 L 84.3753624896974 79.3790024825377 L 83.7949546211735 80.2125632550214 L 83.1786500580136 81.0226872299338 L 82.5273957090871 81.8078272140415 L 81.8422052181788 82.5664743015994 L 81.124157414289 83.2971607545878 L 80.3743946375622 83.9984628201467 L 79.5941209433933 84.6690034798311 L 78.7846001874918 85.3074551254213 L 77.9471539949163 85.9125421561302 L 77.0831596163074 86.4830434921786 L 76.1940476747745 87.0177949998376 L 75.2812998070968 87.5156918231839 L 74.3464462031093 87.9756906179637 L 73.3910630473464 88.3968116831217 L 72.4167698672045 88.7781409857231 L 71.4252267920782 89.1188320751723 L 70.4181317280966 89.4181078828191 L 69.3972174532657 89.6752624032389 L 68.3642486379779 89.889662253672 L 67.3210187960112 90.060748108318 L 66.2693471712832 90.1880360043961 L 65.211075565761 90.2711185171044 L 64.1480651140603 90.3096658008382 L 63.0821930103783 90.3034264942628 L 62.0153491935198 90.2522284870737 L 60.9494329958675 90.155979546522 L 59.886349762241 90.014667802029 L 58.8280074446593 89.8283620864692 L 57.7763131790963 89.5972121329532 L 56.7331698503642 89.3214486262038 L 55.7004726513147 89.0013831078764 L 54.6801056425715 88.6374077354416 L 53.6739383190368 88.2299948945112 L 52.6838221894214 87.7796966647541 L 51.7115873750483 87.287144139818 L 50.759039234169 86.7530466019375 L 49.8279550180053 86.1781905521772 L 48.9200805646977 85.5634385975252 L 48.037127037293 84.9097281963131 L 47.1807677118477 84.2180702637094 L 46.3526348216527 83.4895476392843 L 45.5543164635074 82.7253134189097 L 44.7873535718782 81.9265891535104 L 44.0532369666743 81.0946629174301 L 43.3534044802624 80.2308872494309 L 42.6892381692156 79.3366769695775 L 42.0620616161604 78.4135068755034 L 41.4731373269398 77.4629093217822 L 40.9236642281565 76.4864716863556 L 40.4147752699962 75.4858337281883 L 39.9475351390574 74.4626848405321 L 39.5229380857316 73.4187612043894 L 39.1419058704852 72.3558428469587 L 38.8052858331956 71.2757506100401 L 38.5138490894829 70.180343033556 L 38.2682888577653 69.0715131595173 L 38.0692189205401 67.9511852619254 L 37.9171722231618 66.8213115082596 L 37.8125996131495 65.6838685583372 L 37.7558687228156 64.5408541064724 L 37.7472629977515 63.3942833729841 L 37.7869808734562 62.2461855512103 L 37.8751351021294 61.0986002162985 L 38.0117522313862 59.9535737021221 L 38.1967722363829 58.8131554527638 L 38.4300483065671 57.6793943550659 L 38.7113467879924 56.5543350588126 L 39.0403472818579 55.4400142911479 L 39.4166428996507 54.3384571718721 L 39.8397406749888 53.2516735362782 L 40.309062131978 52.1816542721973 L 40.8239440096098 51.1303676779261 L 41.383639141446 50.0997558476863 L 41.9873174895495 49.0917310912467 L 42.6340673313388 48.1081723942933 L 43.3228965977606 47.1509219260876 L 44.0527343608983 46.2217816008837 L 44.8224324688526 45.3225096995073 L 45.6307673254605 44.4548175574041 L 46.476441812146 43.6203663253743 L 47.358087348928 42.8207638090951 L 48.2742660913531 42.0575613934102 L 49.2234732598583 41.3322510572384 L 50.2041395978215 40.6462624848003 L 51.214633954309 40.0009602787165 L 52.2532659872921 39.3976412803571 L 53.3182889828694 38.8375320026522 L 54.4079027858111 38.3217861803836 L 55.5202568365198 37.8514824427843 L 56.6534533092941 37.4276221130664 L 57.8055503465841 37.0511271392841 L 58.9745653837305 36.722838160716 L 60.1584785585038 36.4435127137189 L 61.3552361995798 36.213823580768 L 62.5627543879328 36.0343572861492 L 63.7789225849691 35.9056127415183 L 65.0016073210884 35.8280000442802 L 66.2286559382247 35.8018394314733 L 67.4579003798027 35.8273603915764 L 68.6871610214375 35.9047009363713 L 69.914250535608 36.0339070347194 L 71.1369777834536 36.2149322098176 L 72.3531517267683 36.4476373012123 L 73.5605853532109 36.731790392556 L 74.7570996076981 37.0670669057928 L 75.9405273229199 37.4530498621636 L 77.1087171418876 37.8892303101192 L 78.2595374254205 38.3750079199284 L 79.3908801374809 38.9096917444685 L 80.5006647012814 39.4925011453798 L 81.5868418191215 40.1225668834697 L 82.6473972489499 40.7989323719437 L 83.6803555307066 41.5205550907523 L 84.6837836555653 42.2863081600348 L 85.6557946712791 43.0949820703576 L 86.594551216924 43.945286567145 L 87.4982689804414 44.8358526864212 L 88.3652200725002 45.7652349386941 L 89.1937363103249 46.7319136375354 L 89.9822124052854 47.7342973691423 L 90.7291090481887 48.7707255988933 L 91.4329558863878 49.8394714106573 L 92.0923543869907 50.938744374356 L 92.7059805806459 52.0666935370388 L 93.2725876805748 53.2214105324869 L 93.7910085717324 54.4009328041365 L 94.2601581651931 55.6032469358888 L 94.6790356130874 56.8262920851618 L 95.0467263796528 58.0679635123382 L 95.3624041642053 59.3261162005689 L 95.6253326720943 60.5985685597125 L 95.8348672299637 61.8831062080153 L 95.9904562419119 63.1774858249816 L 96.0916424834204 64.4794390687288 L 96.138064230201 65.7866765509896 L 96.1294562194033 67.0968918627949 L 96.0656504409166 68.4077656437584 L 95.9465767568002 69.7169696877841 L 95.7722633471794 71.0221710779286 L 95.5428369812528 72.3210363430746 L 95.2585231123672 73.6112356290106 L 94.9196457964304 74.8904468764635 L 94.5266274332483 76.1563599985905 L 94.0799883306906 77.406681050422 L 93.5803460919084 78.6391363827309 L 93.0284148261479 79.851476772812 L 92.4250041840198 81.0414815246753 L 91.7710182184104 82.2069625311831 L 91.0674540725298 83.3457682907135 L 90.3154004969152 84.4557878709855 L 89.5160361975177 85.5349548127577 L 88.6706280173134 86.581250966197 L 87.7805289541854 87.5927102528121 L 86.8471760181294 88.5674223459603 L 85.8720879311309 89.5035362630609 L 84.8568626733582 90.3992638627854 L 83.8031748796032 91.2528832406473 L 82.7127730901819 92.0627420165756 L 81.5874768607834 92.8272605082314 L 80.4291737360218 93.5449347840148 L 79.2398160917091 94.2143395899052 L 78.0214178511128 94.8341311444916 L 76.7760510807106 95.4030497967637 L 75.5058424711853 95.9199225414722 L 74.2129697096256 96.383665387101 L 72.8996577491179 96.7932855717493 L 71.5681749821086 97.1478836224782 L 70.2208293241194 97.4466552539459 L 68.8599642145689 97.6888931024323 L 67.4879545416322 97.8739882916383 L 66.1072024982194 98.0014318269365 L 64.7201333763083 98.0708158150497 L 63.3291913069886 98.0818345064381 L 61.9368349537038 98.0342851579862 L 60.5455331662783 97.9280687138993 L 59.1577606034114 97.7631903030359 L 57.7759933314007 97.5397595512326 L 56.4027044069205 97.2579907075009 L 55.0403594517367 96.9182025833127 L 53.6914122272731 96.5208183045195 L 52.3583002169708 96.0663648757906 L 51.0434402243904 95.5554725577897 L 49.7492239950022 94.9888740576465 L 48.4780138695907 94.3674035336215 L 47.2321384771642 93.6919954151908 L 46.0138884752171 92.9636830401238 L 44.8255123451229 92.183597110449 L 43.669212250368 91.3529639695453 L 42.5471399652386 90.4731037029141 L 41.4613928814742 89.5454280655215 L 40.414010100278 88.5714382389104 L 39.4069686169475 87.5527224216078 L 38.4421796052391 86.4909532566525 L 37.5214848084234 85.3878851003799 L 36.6466530438185 84.2453511368953 L 35.8193768273993 83.0652603429532 L 35.0412691248892 81.8495943082522 L 34.3138602355292 80.6004039164173 L 33.6385948144984 79.3198058922178 L 33.0168290397296 78.0099792208179 L 32.4498279286198 76.6731614451075 L 31.9387628098829 75.3116448473954 L 31.4847089555247 73.9277725219738 L 31.0886433776536 72.5239343452773 L 30.7514427945506 71.1025628505619 L 30.4738817701349 69.6661290142231 L 30.2566310306616 68.2171379610481 L 30.1002559621792 66.7581245958665 L 30.0052152919596 65.2916491692144 L 29.9718599567957 63.8202927847702 L 30.0004321607283 62.3466528564436 L 30.0910646244378 60.8733385231134 L 30.2437800281918 59.4029660291114 L 30.4584906499038 57.9381540786267 L 30.7349981995065 56.4815191722832 L 31.0729938504989 55.0356709341916 L 31.4720584691712 53.6032074378215 L 31.931663041661 52.1867105390633 L 32.4511692986368 50.7887412248599 L 33.0298305370519 49.4118349857854 L 33.6667926380558 48.0584972209251 L 34.3610952797928 46.731198683382 L 35.1116733434711 45.432370974678 L 35.9173585107249 44.164402096261 L 36.7768810499519 42.9296320662424 L 37.6888717889576 41.7303486094011 L 38.6518642708981 40.5687829283758 L 39.6642970901754 39.4471055638484 L 40.7245164046083 38.3674223513782 L 41.8307786198721 37.3317704823994 L 42.9812532418852 36.3421146767245 L 44.1740258925034 35.4003434737178 L 45.4071014835774 34.5082656491113 L 46.6784075441357 33.6676067642254 L 47.9857976951574 32.880005854143 L 49.3270552661308 32.1470122611492 L 50.6998970473111 31.4700826195098 L 52.1019771713426 30.8505779974033 L 53.5308911176512 30.2897612015586 L 54.9841798327809 29.7887942498709 L 56.4593339596217 29.3487360169835 L 57.9537981682555 28.9705400575263 L 59.464975580954 28.6550526113936 L 60.9902322836645 28.4030107951346 L 62.5269019161514 28.2150409831999 L 64.0722903327913 28.0916573824648 L 65.6236803258792 28.0332608031069 L 67.1783364031626 28.0401376285753 L 68.7335096112043 28.1124589870368 L 70.2864423960705 28.2502801263325 L 71.834373492746 28.4535399941164 L 73.3745428346121 28.7220610244842 L 74.9041964742546 29.0555491320376 L 76.4205915068327 29.4535939139544 L 77.921000987206 29.9156690602682 L 79.4027188320107 30.4411329721872 L 80.8630646978716 31.0292295879069 L 82.299388826964 31.6790894150008 L 83.7090768511688 32.3897307680992 L 85.0895545461163 33.1600612101936 L 86.4382925264847 33.9888791955391 L 87.7528108739951 34.8748759117541 L 89.0306836896484 35.8166373183612 L 90.2695435618597 36.8126463786457 L 91.4670859422764 37.8612854813616 L 92.6210734212067 38.960839048458 L 93.7293398947492 40.1094963246629 L 94.7897946158807 41.3053543444169 L 95.8004261219533 42.5464210713281 L 96.7593060312489 43.830618704991 L 97.6645927014559 45.1557871497005 L 98.5145347431631 46.5196876392927 L 99.3074743817038 47.9200065120406 L 100.041850660942 49.3543591292577 L 100.716202482854 50.8202939309801 L 101.32917147704 52.3152966218422 L 101.87950469459 53.8367944800036 L 102.366057121028 55.3821607817515 L 102.787794003356 56.948719334173 L 103.143792986576 58.5337491080788 L 103.433246055341 60.1344889631625 L 103.655461276788 61.7481424571904 L 103.809864340885 63.3718827308483 L 103.89599989504 65.0028574597115 L 103.913532670034 66.6381938646663 L 103.862248394728 68.2750037719783 L 103.742054497361 69.910388714098 L 103.552980591626 71.5414450621944 L 103.29517874611 73.1652691813254 L 102.968923536037 74.7789625990977 L 102.57461187668 76.379637178612 L 102.112762638153 77.9644202864655 L 101.584016041727 79.5304599465637 L 100.989132838171 81.0749299704999 L 100.328993269037 82.5950350552751 L 99.6045958121696 84.0880158391691 L 98.8170557131497 85.5511539066236 L 97.9676033047245 86.981776733065 L 97.0575821166987 88.3772625606832 L 96.0884467791174 89.7350451962795 L 95.0617607219637 91.0526187224125 L 93.979193674956 92.3275421132123 L 92.8425189714034 93.5574437463693 L 91.6536106604338 94.7400258029816 L 90.4144404322684 95.873068547112 L 89.1270743615539 96.954434477112 L 87.79366947411 97.9820723409707 L 86.4164701427759 98.954021008175 L 84.9978043183564 99.8684131908053 L 83.5400796019863 100.723479006838 L 82.0457791655204 101.517549378899 L 80.5174575268538 102.249059261977 L 78.9577361873487 102.916550693917 L 77.3692991388125 103.518675662782 L 75.7548882477182 104.054198785522 L 74.117298524601 104.521999792689 L 72.4593732867908 104.921075814265 L 70.7839992228451 105.250543462047 L 69.0941013672533 105.509640704339 L 67.3926379941532 105.697728529108 L 65.6825954389769 105.814292392086 L 63.9669828570877 105.858943446722 L 62.24882692861 105.831419553222 L 60.5311665187665 105.731586064343 L 58.8170473031446 105.559436385981 L 57.1095163673988 105.31509231099 L 55.4116167909615 104.998804125081 L 53.7263822243937 104.610950484046 L 52.0568314700322 104.152038061956 L 50.4059630756173 103.622700970411 L 48.7767499505771 103.023699949293 L 47.1721340146376 102.355921329931 L 45.5950208883793 101.620375771933 L 44.0482746353247 100.818196775427 L 42.5347125650617 99.9506389707771 L 41.0571001068241 99.0190761883 L 39.6181457628542 98.02499931089 L 38.220496150739 96.9700139128436 L 36.866731143789 95.8558376885825 L 35.5593591183642 94.6842976753461 L 34.3008123168915 93.4573272743116 L 33.0934423351218 92.1769630749612 L 31.9395157419845 90.8453414878873 L 30.841209840171 89.4646951915769 L 29.8006085753531 88.0373493990627 L 28.8196986016937 86.5657179506668 L 27.9003655110432 85.0522992393841 L 27.0443902329462 83.4996719757712 L 26.2534456122893 81.9104907995061 L 25.5290931711244 80.2874817450821 L 24.8727800608837 78.6334375693654 L 24.2858362108825 76.9512129490237 L 23.7694716786646 75.2437195560772 L 23.3247742074004 73.5139210200613 L 22.9527069951909 71.7648277855191 L 22.6541066807603 69.9994918737376 L 22.4296815496483 68.2210015578464 L 22.2800099646266 66.4324759605648 L 22.2055390236719 64.6370595840497 L 22.2065834484322 62.8379167814346 L 22.2833247057146 61.0382261797796 L 22.4358103641154 59.2411750642642 L 22.6639536874979 57.4499537335406 L 22.9675334666026 55.6677498362491 L 23.3461940896549 53.8977426987435 L 23.7994458524087 52.1430976541237 L 24.3266655076389 50.4069603826856 L 24.9270970536668 48.6924512739113 L 25.5998527610773 47.0026598200953 L 26.3439144363566 45.3406390516812 L 27.1581349207555 43.709400024324 L 28.0412398222563 42.1119063676325 L 28.9918294781062 40.5510689054467 L 30.0083811449549 39.0297403574155 L 31.0892514132271 37.5507101315047 L 32.2326788419497 36.1166992169317 L 33.4367868098504 34.730355186868 L 34.6995865781521 33.3942473200669 L 36.0189805600952 32.1108618503942 L 37.3927657918429 30.8825973530229 L 38.8186375990477 29.7117602758369 L 40.2941934530032 28.6005606243397 L 41.8169370099431 27.55110780812 L 43.3842823267165 26.5654066566472 L 44.9935582457328 25.6453536118908 L 46.6420129417503 24.7927331049581 L 48.3268186227845 24.0092141236293 L 50.045076377109 23.2963469773511 L 51.7938211580521 22.655560265904 L 53.5700268980179 22.0881580576181 L 55.3706117429221 21.5953172826428 L 57.1924433979874 21.1780853464118 L 59.0323445756288 20.8373779680602 L 60.8870985359582 20.5739772481591 L 62.7534547102424 20.3885299697368 L 64.6281343974913 20.2815461361456 L 66.5078365241884 20.2533977489204 L 68.3892434570488 20.3043178283534 L 70.2690268585648 20.4343996790829 L 72.1438535750108 20.6435964025621 L 74.0103915464855 20.9317206578357 L 75.8653157285149 21.2984446716174 L 77.7053140146953 21.743300498212 L 79.5270931498213 22.265680529387 L 81.3273846229515 22.8648382538502 L 83.1029505298631 23.5398892655443 L 84.8505893943871 24.2898125195247 L 86.5671419381569 25.1134518337398 L 88.2494967883828 26.0095176345948 L 89.8945961133423 26.9765889437367 L 91.499441175386 28.0131156030646 L 93.0610977913859 29.1174207345364 L 94.5767016906886 30.2877034309164 L 96.0434637608052 31.5220416731908 L 97.4586751712414 32.8183954699608 L 98.8197123660713 34.1746102137183 L 100.124041916068 35.5884202485094 L 101.36922522144 37.0574526431077 L 102.552923056462 38.5792311634304 L 103.672899947557 40.1511804375696 L 104.727028376665 41.7706303064499 L 105.713292802017 43.4348203527725 L 106.629793488761 45.1409046005831 L 107.474750142184 46.885956377467 L 108.246505336643 48.6669733310783 L 108.94352773362 50.4808825914055 L 109.564415082734 52.3245460699102 L 110.107896999864 54.1947658864013 L 110.572837516966 56.0882899142635 L 110.958237398522 58.00181743443 L 111.263236219999 59.9320048882665 L 111.487114204082 61.8754717193481 L 111.629293810896 63.8288062939175 L 111.689341078825 65.7885718896606 L 111.66696671302 67.7513127422822 L 111.562026919086 69.7135601392494 L 111.374523979911 71.6718385499527 L 111.104606574065 73.6226717814529 L 110.752569834614 75.5625891489128 L 110.318855147702 77.4881316497555 L 109.804049690674 79.3958581305746 L 109.208885710015 81.282351435797 L 108.53423953981 83.1442245271166 L 107.781130361915 84.9781265627392 L 106.95071870949 86.7807489255362 L 106.044304715998 88.5488311892608 L 105.063326112237 90.2791670120788 L 104.009355974426 91.9686099467605 L 102.884100226821 93.6140791570197 L 101.689394902765 95.212565029619 L 100.427203168543 96.761134672029 L 99.0996121148137 98.2569372856138 L 97.7088293208393 99.6972094045069 L 96.2571791971367 101.079279990572 L 94.7470991125831 102.400575375068 L 93.181135312408 103.658624037901 L 91.5619386338908 104.851061215599 L 89.8922600269513 105.975633329464 L 88.174945887192 107.030202225611 L 86.412933209296 108.012749218973 L 84.6092445690199 108.92137893364 L 82.7669829423524 109.754322932273 L 80.8893263707033 110.509943127687 L 78.9795224812954 111.186734970064 L 77.0408828721975 111.78333040366 L 75.0767773717075 112.298500587239 L 73.0906281820287 112.731158372914 L 71.085903917418 113.080360538456 L 69.0661135471892 113.345309768595 L 67.034800254147 113.525356381234 L 64.995535219203 113.619999794999 L 62.9519113430717 113.628889734944 L 60.9075369160884 113.55182717372 L 58.8660292472973 113.388765005991 L 56.8310082640647 113.139808454316 L 54.8060900935357 112.805215205236 L 52.7948806373174 112.385395274733 L 50.8009691508069 111.880910602757 L 48.8279218385903 111.292474376957 L 46.8792754773468 110.620950086272 L 44.9585310776528 109.867350305479 L 43.0691475960444 109.032835212327 L 41.2145357086277 108.118710839308 L 39.3980516574426 107.126427062653 L 37.622991180672 106.057575331557 L 35.892583537672 104.913886141149 L 34.2099856396438 103.69722625317 L 32.5782762966077 102.40959566877 L 31.0004505911531 101.053124358305 L 29.4794143892302 99.6300687534399 L 28.0179789980331 98.1428080073201 L 26.618855980776 96.5938400289612 L 25.2846521379116 94.9857772984678 L 24.0178646640555 93.3213424700582 L 22.8208764895954 91.6033637702834 L 21.6959518156474 89.8347701992039 L 20.6452318506962 88.0185865426508 L 19.6707307569178 86.1579282040601 L 18.7743318138191 84.2559958646936 L 17.9577838064642 82.316069981397 L 17.2226976451688 80.3415051313435 L 16.5705432231463 78.3357242135124 L 16.0026465181792 76.3022125169148 L 15.5201869439665 74.2445116658468 L 15.1241949563666 72.1662134526869 L 14.8155499193092 70.0709535689706 L 14.5949782347005 67.9624052456894 L 14.4630517401807 65.8442728139304 L 14.4201863781274 63.720285197151 L 14.4666411388218 61.5941893465158 L 14.6025172802096 59.4697436308591 L 14.8277578262046 57.3507111929262 L 15.1421473449905 55.2408532836441 L 15.545312008278 53.1439225862251 L 16.0367199319805 51.0636565419519 L 16.6156817982679 49.0037706895176 L 17.2813517584602 46.9679520297835 L 18.0327286157187 44.959852427807 L 18.8686572859967 42.9830820639407 L 19.7878305352065 41.0412029457489 L 20.7887909900731 39.1377224923914 L 21.8699334196439 37.276087203029 L 23.0295072839429 35.459676420672 L 24.2656195457689 33.691796202753 L 25.5762377411692 31.9756733095255 L 26.9591933036436 30.3144493212167 L 28.4121851366753 28.7111748946445 L 29.9327834287351 27.168804169786 L 31.5184337044548 25.6901893365408 L 33.1664611052442 24.2780753716617 L 34.8740748921931 22.9350949555475 L 36.6383731636993 21.663763578289 L 38.4563477798581 20.4664748440441 L 40.3248894852747 19.3454959824763 L 42.2407932215832 18.3029635756479 L 44.2007636206057 17.340879508387" fill="Transparent" />
  <symbol id="psChevron" viewBox="0 0 100 100">
    <polygon points="40,20 45,20 60,50 35,80 32.5,80 55,50" />
  </symbol>
  <use href="#psChevron" width="90%" height="90%" fill="#4488ff" x="5%" class="foreground-fill" y="5%" />
  <text dominant-baseline="middle" text-anchor="end" x="50%" y="50%" fill="#4488ff" style="font-family: 'Righteous';" class="foreground-fill">PowerShell</text>
  <text dominant-baseline="middle" text-anchor="guide" x="60%" y="50%" fill="#4488ff" style="font-family: 'Righteous';" class="foreground-fill">Guide</text>
</svg>
